<?xml version="1.0"?>
<svg xmlns="http://www.w3.org/2000/svg" xmlns:xlink="http://www.w3.org/1999/xlink" version="1.1" id="Capa_1" x="0px" y="0px" viewBox="0 0 512.027 512.027" style="enable-background:new 0 0 512.027 512.027;" xml:space="preserve" width="512px" height="512px" class=""><g><g transform="translate(0 -1)">
	<path style="fill:#1273EB" d="M508.028,46.648c-2.313-1.661-5.324-1.995-7.945-0.883L52.966,226.201L0,248.181l160.044,64.794   h0.177v0.088l42.814,149.451c0.862,3.009,3.254,5.336,6.285,6.117c3.031,0.78,6.249-0.103,8.457-2.321l89.159-91.189l120.32,47.316   c4.959,2.027,10.574,1.661,15.228-0.993c4.653-2.654,7.827-7.301,8.607-12.601l60.734-353.015   C512.606,52.275,511.091,48.611,508.028,46.648z M248.761,351.464l0.177-0.618l0.265,0.088L248.761,351.464z" data-original="#F3D55B" class="" data-old_color="#F3D55B"/>
	<path style="fill:#1160C1" d="M306.935,375.122l-89.159,91.189c1.039-1.131,1.796-2.492,2.207-3.972l28.778-110.874l0.441-0.53   l38.312,16.066l17.126,7.239L306.935,375.122z" data-original="#F29C1F" class="active-path" data-old_color="#F29C1F"/>
	<path style="fill:#04458F" d="M508.681,47.124l-259.478,303.81l-0.265-0.088l-0.177,0.618l-28.778,110.874   c-0.411,1.48-1.167,2.841-2.207,3.972c-2.208,2.218-5.426,3.101-8.457,2.321c-3.031-0.78-5.422-3.108-6.285-6.117l-42.814-149.451   v-0.088h-0.088v-0.088L508.681,47.124z" data-original="#F0C419" class="" data-old_color="#F0C419"/>
</g></g> </svg>
